<svg id="Capa_1" data-name="Capa 1" xmlns="http://www.w3.org/2000/svg" viewBox="0 0 99.2 83.2"><defs><style>.cls-1{fill:#2c2c2c;}</style></defs><path class="cls-1" d="M224,233.6a9.6,9.6,0,1,0-9.6-9.6A9.6,9.6,0,0,0,224,233.6Zm25.6-16a6.4,6.4,0,1,0,0,12.8h57.6a6.4,6.4,0,1,0,0-12.8Zm0,32a6.4,6.4,0,0,0,0,12.8h57.6a6.4,6.4,0,1,0,0-12.8Zm0,32a6.4,6.4,0,0,0,0,12.8h57.6a6.4,6.4,0,1,0,0-12.8Zm-25.6,16a9.6,9.6,0,1,0-9.6-9.6A9.6,9.6,0,0,0,224,297.6Zm9.6-41.6a9.6,9.6,0,1,0-9.6,9.6A9.6,9.6,0,0,0,233.6,256Z" transform="translate(-214.4 -214.4)"/></svg>