<svg id="b12c5cde-7285-465a-bcff-0f24436a10a4" data-name="e5165a38-60f6-439b-8c64-63a367f121b4" xmlns="http://www.w3.org/2000/svg" viewBox="0 0 92.44 85.01"><path d="M10.29,47.23c4.65,0,8.41,4.22,8.41,9.44V75.56c0,5.23-3.76,9.45-8.41,9.45s-8.4-4.22-8.4-9.45V56.67C1.89,51.45,5.64,47.23,10.29,47.23Z" transform="translate(-1.89)" fill="#fff"/><path d="M43.91,28.34V75.56c0,5.23-3.76,9.45-8.4,9.45s-8.41-4.22-8.41-9.45V28.34c0-5.23,3.76-9.45,8.41-9.45S43.91,23.11,43.91,28.34Z" transform="translate(-1.89)" fill="#fff"/><path d="M60.72,37.78c4.65,0,8.4,4.22,8.4,9.45V75.56c0,5.23-3.75,9.45-8.4,9.45s-8.41-4.22-8.41-9.45V47.23C52.31,42,56.07,37.78,60.72,37.78Z" transform="translate(-1.89)" fill="#fff"/><path d="M94.33,9.45V75.56c0,5.23-3.75,9.45-8.4,9.45s-8.4-4.22-8.4-9.45V9.45c0-5.23,3.75-9.45,8.4-9.45S94.33,4.22,94.33,9.45Z" transform="translate(-1.89)" fill="#fff"/></svg>